<?xml version="1.0" encoding="UTF-8"?>
<!DOCTYPE svg PUBLIC "-//W3C//DTD SVG 1.1//EN" "http://www.w3.org/Graphics/SVG/1.1/DTD/svg11.dtd">
<svg xmlns="http://www.w3.org/2000/svg" version="1.1" width="500px" height="500px" style="shape-rendering:geometricPrecision; text-rendering:geometricPrecision; image-rendering:optimizeQuality; fill-rule:evenodd; clip-rule:evenodd" xmlns:xlink="http://www.w3.org/1999/xlink">
<g><path style="opacity:1" fill="#fefefe" d="M -0.5,-0.5 C 166.167,-0.5 332.833,-0.5 499.5,-0.5C 499.5,166.167 499.5,332.833 499.5,499.5C 332.833,499.5 166.167,499.5 -0.5,499.5C -0.5,332.833 -0.5,166.167 -0.5,-0.5 Z"/></g>
<g><path style="opacity:1" fill="#7f7f7f" d="M 187.5,145.5 C 167.326,145.17 147.326,145.503 127.5,146.5C 126.957,146.44 126.624,146.107 126.5,145.5C 146.996,144.172 167.329,144.172 187.5,145.5 Z"/></g>
<g><path style="opacity:1" fill="#8bc8e3" d="M 368.5,147.5 C 346.177,146.167 323.51,145.5 300.5,145.5C 277.664,145.5 254.998,145.833 232.5,146.5C 231.957,146.44 231.624,146.107 231.5,145.5C 277.495,144.5 323.495,144.167 369.5,144.5C 369.737,145.791 369.404,146.791 368.5,147.5 Z"/></g>
<g><path style="opacity:1" fill="#010101" d="M 187.5,145.5 C 191.42,166.934 195.92,188.267 201,209.5C 212.5,193.167 224,176.833 235.5,160.5C 241.206,166.873 246.54,173.539 251.5,180.5C 256.421,180.862 261.087,181.862 265.5,183.5C 257.006,222.475 248.673,261.475 240.5,300.5C 231.584,301.471 222.584,301.804 213.5,301.5C 217.927,279.744 222.427,258.078 227,236.5C 221.417,244.664 216.084,252.997 211,261.5C 200.363,270.649 189.363,279.315 178,287.5C 174.878,270.096 171.544,252.762 168,235.5C 162.507,257.476 157.34,279.476 152.5,301.5C 139.833,301.5 127.167,301.5 114.5,301.5C 114.5,300.5 114.5,299.5 114.5,298.5C 123.828,255.187 133.161,211.853 142.5,168.5C 142.333,167.5 142.167,166.5 142,165.5C 136.951,159.29 132.117,152.957 127.5,146.5C 147.326,145.503 167.326,145.17 187.5,145.5 Z"/></g>
<g><path style="opacity:1" fill="#1b91c8" d="M 368.5,147.5 C 365.755,161.56 362.755,175.56 359.5,189.5C 346.124,190.148 333.124,189.481 320.5,187.5C 321.167,183.5 321.833,179.5 322.5,175.5C 319.167,175.5 315.833,175.5 312.5,175.5C 303.886,217.904 294.886,260.238 285.5,302.5C 272.167,302.5 258.833,302.5 245.5,302.5C 254.518,260.241 263.851,218.074 273.5,176C 267.167,175.667 260.833,175.333 254.5,175C 246.951,165.624 239.618,156.124 232.5,146.5C 254.998,145.833 277.664,145.5 300.5,145.5C 323.51,145.5 346.177,146.167 368.5,147.5 Z"/></g>
<g><path style="opacity:1" fill="#797979" d="M 251.5,180.5 C 256.5,180.5 261.5,180.5 266.5,180.5C 266.737,181.791 266.404,182.791 265.5,183.5C 261.087,181.862 256.421,180.862 251.5,180.5 Z"/></g>
<g><path style="opacity:1" fill="#8cc8e3" d="M 320.5,187.5 C 333.124,189.481 346.124,190.148 359.5,189.5C 346.344,190.496 333.01,190.829 319.5,190.5C 319.263,189.209 319.596,188.209 320.5,187.5 Z"/></g>
<g><path style="opacity:1" fill="#8d8d8d" d="M 326.5,257.5 C 324.156,254.927 323.823,251.927 325.5,248.5C 335.267,243.581 344.1,237.248 352,229.5C 352.471,227.754 353.138,226.087 354,224.5C 355.068,229.768 354.401,234.768 352,239.5C 344.961,247.6 336.461,253.6 326.5,257.5 Z"/></g>
<g><path style="opacity:1" fill="#7f7f7f" d="M 337.5,263.5 C 337.5,260.5 337.5,257.5 337.5,254.5C 343.353,251.16 348.52,246.827 353,241.5C 355.146,238.874 356.479,235.874 357,232.5C 359.365,238.854 358.698,244.854 355,250.5C 350.266,256.437 344.432,260.77 337.5,263.5 Z"/></g>
<g><path style="opacity:1" fill="#bbbbbb" d="M 325.5,248.5 C 323.823,251.927 324.156,254.927 326.5,257.5C 319.804,260.93 312.971,264.264 306,267.5C 303.493,264.624 302.993,261.457 304.5,258C 311.552,254.805 318.552,251.638 325.5,248.5 Z"/></g>
<g><path style="opacity:1" fill="#afafaf" d="M 337.5,254.5 C 337.5,257.5 337.5,260.5 337.5,263.5C 330.549,267.98 323.216,271.98 315.5,275.5C 312.94,273.727 310.607,271.727 308.5,269.5C 318.319,264.757 327.986,259.757 337.5,254.5 Z"/></g>
<g><path style="opacity:1" fill="#1b7eb8" d="M 310.5,274.5 C 310.813,278.042 310.479,281.375 309.5,284.5C 300.416,279.02 297.582,271.353 301,261.5C 302.456,267.117 305.622,271.45 310.5,274.5 Z"/></g>
<g><path style="opacity:1" fill="#2395ca" d="M 310.5,274.5 C 316.038,278.1 321.704,281.434 327.5,284.5C 327.813,288.042 327.479,291.375 326.5,294.5C 320.308,291.956 314.641,288.623 309.5,284.5C 310.479,281.375 310.813,278.042 310.5,274.5 Z"/></g>
<g><path style="opacity:1" fill="#208ec4" d="M 321.5,294.5 C 321.5,297.833 321.5,301.167 321.5,304.5C 312.598,300.794 304.765,295.461 298,288.5C 293.791,282.706 293.457,276.706 297,270.5C 297.957,275.75 300.457,280.083 304.5,283.5C 309.684,287.925 315.351,291.591 321.5,294.5 Z"/></g>
<g><path style="opacity:1" fill="#2fb6e4" d="M 327.5,284.5 C 336.718,287.776 345.385,292.109 353.5,297.5C 353.817,301.702 353.483,305.702 352.5,309.5C 344.093,303.966 335.426,298.966 326.5,294.5C 327.479,291.375 327.813,288.042 327.5,284.5 Z"/></g>
<g><path style="opacity:1" fill="#3dccf5" d="M 353.5,297.5 C 366.454,306.415 370.62,318.415 366,333.5C 364.309,323.772 359.809,315.772 352.5,309.5C 353.483,305.702 353.817,301.702 353.5,297.5 Z"/></g>
<g><path style="opacity:1" fill="#2babdc" d="M 321.5,294.5 C 328.026,297.595 334.359,300.928 340.5,304.5C 340.815,308.371 340.482,312.038 339.5,315.5C 333.464,311.819 327.464,308.152 321.5,304.5C 321.5,301.167 321.5,297.833 321.5,294.5 Z"/></g>
<g><path style="opacity:1" fill="#404040" d="M 114.5,298.5 C 114.5,299.5 114.5,300.5 114.5,301.5C 127.167,301.5 139.833,301.5 152.5,301.5C 139.677,302.495 126.677,302.829 113.5,302.5C 113.232,300.901 113.566,299.568 114.5,298.5 Z"/></g>
<g><path style="opacity:1" fill="#434343" d="M 240.5,300.5 C 236.386,301.826 231.886,302.493 227,302.5C 222.32,302.499 217.82,302.166 213.5,301.5C 222.584,301.804 231.584,301.471 240.5,300.5 Z"/></g>
<g><path style="opacity:1" fill="#419fcf" d="M 309.5,312.5 C 313.161,312.35 314.161,313.85 312.5,317C 307.522,317.864 306.522,316.364 309.5,312.5 Z"/></g>
<g><path style="opacity:1" fill="#0e0e0e" d="M 117.5,323.5 C 117.5,325.167 117.5,326.833 117.5,328.5C 117.16,330.679 116.16,332.512 114.5,334C 111.077,335.904 107.41,336.737 103.5,336.5C 103.192,330.575 103.525,324.741 104.5,319C 107.5,318.333 110.5,318.333 113.5,319C 115.751,319.748 117.084,321.248 117.5,323.5 Z"/></g>
<g><path style="opacity:1" fill="#0e0e0e" d="M 177.5,331.5 C 177.5,329.5 177.5,327.5 177.5,325.5C 178.428,320.578 181.428,318.244 186.5,318.5C 191.745,318.246 194.078,320.746 193.5,326C 193.071,333.555 189.071,336.888 181.5,336C 179.356,335.208 178.023,333.708 177.5,331.5 Z"/></g>
<g><path style="opacity:1" fill="#0a0a0a" d="M 195.5,318.5 C 199.182,318.335 202.848,318.501 206.5,319C 210.826,324.044 210.16,328.378 204.5,332C 203.207,332.49 201.873,332.657 200.5,332.5C 200.5,333.833 200.5,335.167 200.5,336.5C 198.833,336.5 197.167,336.5 195.5,336.5C 195.5,330.5 195.5,324.5 195.5,318.5 Z"/></g>
<g><path style="opacity:1" fill="#131313" d="M 231.5,318.5 C 235.558,317.692 238.224,319.192 239.5,323C 238.899,324.605 237.899,325.938 236.5,327C 238.24,328.827 239.907,328.66 241.5,326.5C 244.079,327.888 244.079,329.388 241.5,331C 243.394,332.079 243.727,333.413 242.5,335C 240.965,335.496 239.465,335.33 238,334.5C 234.434,336.536 230.768,336.869 227,335.5C 225.044,332.172 225.544,329.172 228.5,326.5C 226.763,322.77 227.763,320.103 231.5,318.5 Z"/></g>
<g><path style="opacity:1" fill="#2795ca" d="M 277.5,323.5 C 277.5,325.167 277.5,326.833 277.5,328.5C 275.33,335.258 270.663,337.925 263.5,336.5C 263.192,330.575 263.525,324.741 264.5,319C 267.833,318.333 271.167,318.333 274.5,319C 276.141,320.129 277.141,321.629 277.5,323.5 Z"/></g>
<g><path style="opacity:1" fill="#2996ca" d="M 327.5,324.5 C 325.265,324.205 323.265,324.539 321.5,325.5C 324.5,325.5 327.5,325.5 330.5,325.5C 330.5,327.167 330.5,328.833 330.5,330.5C 328.234,335.796 324.234,337.63 318.5,336C 313.023,330.11 313.356,324.443 319.5,319C 322.5,318.333 325.5,318.333 328.5,319C 329.332,320.909 328.999,322.742 327.5,324.5 Z"/></g>
<g><path style="opacity:1" fill="#101010" d="M 119.5,336.5 C 119.5,330.833 119.5,325.167 119.5,319.5C 123.466,318.838 127.466,318.505 131.5,318.5C 131.5,320.167 131.5,321.833 131.5,323.5C 129.076,323.192 126.743,323.526 124.5,324.5C 126.396,325.466 128.396,325.799 130.5,325.5C 130.5,326.833 130.5,328.167 130.5,329.5C 122.667,330.947 123,331.613 131.5,331.5C 131.5,333.167 131.5,334.833 131.5,336.5C 127.5,336.5 123.5,336.5 119.5,336.5 Z"/></g>
<g><path style="opacity:1" fill="#0f0f0f" d="M 148.5,318.5 C 148.5,319.167 148.5,319.833 148.5,320.5C 147.169,325.83 145.836,331.163 144.5,336.5C 142.208,336.756 140.041,336.423 138,335.5C 136.162,330.65 134.328,325.817 132.5,321C 134.353,319.331 136.353,319.165 138.5,320.5C 139.634,323.07 140.468,325.736 141,328.5C 142.045,325.564 142.879,322.564 143.5,319.5C 145.045,318.548 146.712,318.215 148.5,318.5 Z"/></g>
<g><path style="opacity:1" fill="#101010" d="M 150.5,336.5 C 150.5,330.833 150.5,325.167 150.5,319.5C 154.466,318.838 158.466,318.505 162.5,318.5C 162.5,320.167 162.5,321.833 162.5,323.5C 160.076,323.192 157.743,323.526 155.5,324.5C 157.396,325.466 159.396,325.799 161.5,325.5C 161.5,326.833 161.5,328.167 161.5,329.5C 153.667,330.947 154,331.613 162.5,331.5C 162.5,333.167 162.5,334.833 162.5,336.5C 158.5,336.5 154.5,336.5 150.5,336.5 Z"/></g>
<g><path style="opacity:1" fill="#030303" d="M 168.5,318.5 C 168.5,322.833 168.5,327.167 168.5,331.5C 170.415,331.784 172.081,331.451 173.5,330.5C 174.167,330.5 174.833,330.5 175.5,330.5C 175.5,332.167 175.5,333.833 175.5,335.5C 174.5,335.5 173.5,335.5 172.5,335.5C 169.833,335.5 167.167,335.5 164.5,335.5C 164.5,330.167 164.5,324.833 164.5,319.5C 165.568,318.566 166.901,318.232 168.5,318.5 Z"/></g>
<g><path style="opacity:1" fill="#6a6a6a" d="M 168.5,318.5 C 169.483,322.298 169.817,326.298 169.5,330.5C 170.833,330.5 172.167,330.5 173.5,330.5C 172.081,331.451 170.415,331.784 168.5,331.5C 168.5,327.167 168.5,322.833 168.5,318.5 Z"/></g>
<g><path style="opacity:1" fill="#2b96ca" d="M 279.5,336.5 C 279.5,330.833 279.5,325.167 279.5,319.5C 283.466,318.838 287.466,318.505 291.5,318.5C 291.5,320.167 291.5,321.833 291.5,323.5C 282.167,324.167 282.167,324.833 291.5,325.5C 291.714,327.144 291.38,328.644 290.5,330C 288.5,330.333 286.5,330.667 284.5,331C 286.81,331.497 289.143,331.663 291.5,331.5C 291.5,333.167 291.5,334.833 291.5,336.5C 287.5,336.5 283.5,336.5 279.5,336.5 Z"/></g>
<g><path style="opacity:1" fill="#3599cc" d="M 296.5,318.5 C 299.187,318.336 301.854,318.503 304.5,319C 305.38,320.356 305.714,321.856 305.5,323.5C 303.076,323.192 300.743,323.526 298.5,324.5C 304.903,324.395 307.403,327.395 306,333.5C 302.229,337.547 297.729,338.547 292.5,336.5C 292.421,335.07 292.754,333.736 293.5,332.5C 296.107,331.682 298.774,331.182 301.5,331C 291.715,330.017 290.049,325.85 296.5,318.5 Z"/></g>
<g><path style="opacity:1" fill="#2e98cb" d="M 307.5,318.5 C 309.5,318.5 311.5,318.5 313.5,318.5C 313.666,324.176 313.499,329.843 313,335.5C 311.301,336.406 309.467,336.739 307.5,336.5C 307.5,330.5 307.5,324.5 307.5,318.5 Z"/></g>
<g><path style="opacity:1" fill="#1e93c9" d="M 340.5,323.5 C 340.783,324.289 341.283,324.956 342,325.5C 342.333,323.5 342.667,321.5 343,319.5C 344.356,318.62 345.856,318.286 347.5,318.5C 347.5,319.833 347.5,321.167 347.5,322.5C 347.666,326.846 347.499,331.179 347,335.5C 345.506,336.747 344.006,336.747 342.5,335.5C 338.476,327.421 336.81,327.754 337.5,336.5C 335.833,336.5 334.167,336.5 332.5,336.5C 332.5,330.833 332.5,325.167 332.5,319.5C 336.66,317.635 339.327,318.968 340.5,323.5 Z"/></g>
<g><path style="opacity:1" fill="#43cdf5" d="M 340.5,304.5 C 359.437,312.705 366.27,326.705 361,346.5C 359.323,336.803 354.823,328.803 347.5,322.5C 347.5,321.167 347.5,319.833 347.5,318.5C 345.856,318.286 344.356,318.62 343,319.5C 342.667,321.5 342.333,323.5 342,325.5C 341.283,324.956 340.783,324.289 340.5,323.5C 341.926,320.701 341.592,318.034 339.5,315.5C 340.482,312.038 340.815,308.371 340.5,304.5 Z"/></g>
<g><path style="opacity:1" fill="#bdbdbd" d="M 232.5,322.5 C 234.337,322.639 234.67,323.306 233.5,324.5C 232.702,324.043 232.369,323.376 232.5,322.5 Z"/></g>
<g><path style="opacity:1" fill="#d9d9d9" d="M 200.5,323.5 C 201.833,323.5 203.167,323.5 204.5,323.5C 204.773,325.958 203.773,327.625 201.5,328.5C 200.548,326.955 200.215,325.288 200.5,323.5 Z"/></g>
<g><path style="opacity:1" fill="#f4f4f4" d="M 108.5,323.5 C 112.473,324.075 113.473,326.242 111.5,330C 110.552,330.483 109.552,330.649 108.5,330.5C 108.5,328.167 108.5,325.833 108.5,323.5 Z"/></g>
<g><path style="opacity:1" fill="#f5f5f5" d="M 183.5,324.5 C 185.167,324.5 186.833,324.5 188.5,324.5C 188.859,328.987 187.026,330.654 183,329.5C 182.36,327.735 182.527,326.068 183.5,324.5 Z"/></g>
<g><path style="opacity:1" fill="#f5fafc" d="M 268.5,323.5 C 272.473,324.075 273.473,326.242 271.5,330C 270.552,330.483 269.552,330.649 268.5,330.5C 268.5,328.167 268.5,325.833 268.5,323.5 Z"/></g>
<g><path style="opacity:1" fill="#9dd0e7" d="M 279.5,319.5 C 279.5,325.167 279.5,330.833 279.5,336.5C 278.833,333.833 278.167,331.167 277.5,328.5C 277.5,326.833 277.5,325.167 277.5,323.5C 278.167,322.167 278.833,320.833 279.5,319.5 Z"/></g>
<g><path style="opacity:1" fill="#a1d2e8" d="M 332.5,319.5 C 332.5,325.167 332.5,330.833 332.5,336.5C 331.833,334.5 331.167,332.5 330.5,330.5C 330.5,328.833 330.5,327.167 330.5,325.5C 327.5,325.5 324.5,325.5 321.5,325.5C 323.265,324.539 325.265,324.205 327.5,324.5C 328.833,324.5 330.167,324.5 331.5,324.5C 331.216,322.585 331.549,320.919 332.5,319.5 Z"/></g>
<g><path style="opacity:1" fill="#606060" d="M 164.5,319.5 C 164.5,324.833 164.5,330.167 164.5,335.5C 167.167,335.5 169.833,335.5 172.5,335.5C 169.713,336.477 166.713,336.81 163.5,336.5C 163.178,330.642 163.511,324.975 164.5,319.5 Z"/></g>
<g><path style="opacity:1" fill="#e0f0f7" d="M 321.5,325.5 C 321.5,326.833 321.5,328.167 321.5,329.5C 325.172,330.045 324.838,330.378 320.5,330.5C 320.216,328.585 320.549,326.919 321.5,325.5 Z"/></g>
<g><path style="opacity:1" fill="#989898" d="M 119.5,319.5 C 119.5,325.167 119.5,330.833 119.5,336.5C 118.833,333.833 118.167,331.167 117.5,328.5C 117.5,326.833 117.5,325.167 117.5,323.5C 118.167,322.167 118.833,320.833 119.5,319.5 Z"/></g>
<g><path style="opacity:1" fill="#979797" d="M 148.5,318.5 C 149.167,318.833 149.833,319.167 150.5,319.5C 150.5,325.167 150.5,330.833 150.5,336.5C 149.833,331.167 149.167,325.833 148.5,320.5C 148.5,319.833 148.5,319.167 148.5,318.5 Z"/></g>
<g><path style="opacity:1" fill="#929292" d="M 177.5,325.5 C 177.5,327.5 177.5,329.5 177.5,331.5C 176.833,332.833 176.167,334.167 175.5,335.5C 175.5,333.833 175.5,332.167 175.5,330.5C 176.167,328.833 176.833,327.167 177.5,325.5 Z"/></g>
<g><path style="opacity:1" fill="#cecece" d="M 231.5,329.5 C 232.995,329.415 233.995,330.081 234.5,331.5C 233.167,332.833 231.833,332.833 230.5,331.5C 230.863,330.817 231.196,330.15 231.5,329.5 Z"/></g>
</svg>
